<svg width="128" height="128" viewBox="0 0 128 128" xmlns="http://www.w3.org/2000/svg">
  <defs>
    <!-- Glow effects -->
    <filter id="neonGlow" x="-50%" y="-50%" width="200%" height="200%">
      <feGaussianBlur stdDeviation="3" result="coloredBlur"/>
      <feMerge> 
        <feMergeNode in="coloredBlur"/>
        <feMergeNode in="SourceGraphic"/>
      </feMerge>
    </filter>
    
    <filter id="strongGlow" x="-50%" y="-50%" width="200%" height="200%">
      <feGaussianBlur stdDeviation="4" result="coloredBlur"/>
      <feMerge> 
        <feMergeNode in="coloredBlur"/>
        <feMergeNode in="SourceGraphic"/>
      </feMerge>
    </filter>
    
    <!-- Gradient definitions -->
    <linearGradient id="cyberGradient" x1="0%" y1="0%" x2="100%" y2="100%">
      <stop offset="0%" style="stop-color:#00FFFF;stop-opacity:1" />
      <stop offset="50%" style="stop-color:#0080FF;stop-opacity:1" />
      <stop offset="100%" style="stop-color:#8000FF;stop-opacity:1" />
    </linearGradient>
    
    <linearGradient id="dataGradient" x1="0%" y1="0%" x2="100%" y2="100%">
      <stop offset="0%" style="stop-color:#00FF80;stop-opacity:1" />
      <stop offset="100%" style="stop-color:#00FFFF;stop-opacity:1" />
    </linearGradient>
    
    <radialGradient id="bgGradient" cx="50%" cy="50%" r="50%">
      <stop offset="0%" style="stop-color:#0A0A0A;stop-opacity:1" />
      <stop offset="70%" style="stop-color:#1A1A2E;stop-opacity:1" />
      <stop offset="100%" style="stop-color:#16213E;stop-opacity:1" />
    </radialGradient>
  </defs>
  
  <!-- Background with gradient -->
  <rect width="128" height="128" fill="url(#bgGradient)" rx="16"/>
  
  <!-- Outer glow ring -->
  <circle cx="64" cy="64" r="58" fill="none" stroke="url(#cyberGradient)" stroke-width="2" opacity="0.6" filter="url(#neonGlow)"/>
  
  <!-- Main data visualization - Holographic data streams -->
  <!-- Central data core -->
  <circle cx="64" cy="64" r="12" fill="none" stroke="url(#dataGradient)" stroke-width="2" opacity="0.8" filter="url(#neonGlow)"/>
  <circle cx="64" cy="64" r="6" fill="url(#dataGradient)" opacity="0.3"/>
  
  <!-- Data streams radiating outward -->
  <g filter="url(#strongGlow)">
    <!-- Horizontal streams -->
    <line x1="20" y1="64" x2="52" y2="64" stroke="url(#dataGradient)" stroke-width="2" opacity="0.7"/>
    <line x1="76" y1="64" x2="108" y2="64" stroke="url(#dataGradient)" stroke-width="2" opacity="0.7"/>
    
    <!-- Vertical streams -->
    <line x1="64" y1="20" x2="64" y2="52" stroke="url(#dataGradient)" stroke-width="2" opacity="0.7"/>
    <line x1="64" y1="76" x2="64" y2="108" stroke="url(#dataGradient)" stroke-width="2" opacity="0.7"/>
    
    <!-- Diagonal streams -->
    <line x1="20" y1="20" x2="52" y2="52" stroke="url(#dataGradient)" stroke-width="1.5" opacity="0.6"/>
    <line x1="108" y1="20" x2="76" y2="52" stroke="url(#dataGradient)" stroke-width="1.5" opacity="0.6"/>
    <line x1="20" y1="108" x2="52" y2="76" stroke="url(#dataGradient)" stroke-width="1.5" opacity="0.6"/>
    <line x1="108" y1="108" x2="76" y2="76" stroke="url(#dataGradient)" stroke-width="1.5" opacity="0.6"/>
  </g>
  
  <!-- Data nodes along streams -->
  <g filter="url(#neonGlow)">
    <circle cx="36" cy="64" r="3" fill="url(#dataGradient)"/>
    <circle cx="92" cy="64" r="3" fill="url(#dataGradient)"/>
    <circle cx="64" cy="36" r="3" fill="url(#dataGradient)"/>
    <circle cx="64" cy="92" r="3" fill="url(#dataGradient)"/>
    <circle cx="36" cy="36" r="2" fill="url(#dataGradient)"/>
    <circle cx="92" cy="36" r="2" fill="url(#dataGradient)"/>
    <circle cx="36" cy="92" r="2" fill="url(#dataGradient)"/>
    <circle cx="92" cy="92" r="2" fill="url(#dataGradient)"/>
  </g>
  
  <!-- Floating data particles -->
  <g opacity="0.6" filter="url(#neonGlow)">
    <circle cx="28" cy="28" r="1" fill="#00FFFF"/>
    <circle cx="100" cy="28" r="1" fill="#00FFFF"/>
    <circle cx="28" cy="100" r="1" fill="#00FFFF"/>
    <circle cx="100" cy="100" r="1" fill="#00FFFF"/>
    <circle cx="16" cy="48" r="1" fill="#8000FF"/>
    <circle cx="112" cy="48" r="1" fill="#8000FF"/>
    <circle cx="16" cy="80" r="1" fill="#8000FF"/>
    <circle cx="112" cy="80" r="1" fill="#8000FF"/>
  </g>
  
  <!-- Circuit-like patterns -->
  <g stroke="url(#cyberGradient)" stroke-width="1" fill="none" opacity="0.4" filter="url(#neonGlow)">
    <!-- Corner circuits -->
    <path d="M16 16 L24 16 L24 24 L16 24 Z"/>
    <path d="M104 16 L112 16 L112 24 L104 24 Z"/>
    <path d="M16 104 L24 104 L24 112 L16 112 Z"/>
    <path d="M104 104 L112 104 L112 112 L104 112 Z"/>
    
    <!-- Inner circuit patterns -->
    <rect x="48" y="48" width="8" height="8" fill="none"/>
    <rect x="72" y="48" width="8" height="8" fill="none"/>
    <rect x="48" y="72" width="8" height="8" fill="none"/>
    <rect x="72" y="72" width="8" height="8" fill="none"/>
  </g>
  
  <!-- Scientific data visualization elements -->
  <g filter="url(#strongGlow)">
    <!-- Bar chart representation -->
    <rect x="20" y="20" width="4" height="8" fill="url(#dataGradient)" opacity="0.8"/>
    <rect x="26" y="18" width="4" height="10" fill="url(#dataGradient)" opacity="0.8"/>
    <rect x="32" y="22" width="4" height="6" fill="url(#dataGradient)" opacity="0.8"/>
    
    <rect x="92" y="20" width="4" height="8" fill="url(#dataGradient)" opacity="0.8"/>
    <rect x="98" y="18" width="4" height="10" fill="url(#dataGradient)" opacity="0.8"/>
    <rect x="104" y="22" width="4" height="6" fill="url(#dataGradient)" opacity="0.8"/>
  </g>
  
  <!-- Central data processing core with pulsing effect -->
  <circle cx="64" cy="64" r="8" fill="none" stroke="url(#cyberGradient)" stroke-width="1" opacity="0.5">
    <animate attributeName="r" values="8;12;8" dur="2s" repeatCount="indefinite"/>
  </circle>
  
  <!-- Corner accent elements -->
  <g fill="url(#cyberGradient)" opacity="0.6" filter="url(#neonGlow)">
    <polygon points="16,16 20,16 16,20"/>
    <polygon points="112,16 108,16 112,20"/>
    <polygon points="16,112 20,112 16,108"/>
    <polygon points="112,112 108,112 112,108"/>
  </g>
</svg>