<svg width="128" height="128" viewBox="0 0 128 128" xmlns="http://www.w3.org/2000/svg">
  <!-- Background circle -->
  <circle cx="64" cy="64" r="60" fill="#007ACC" stroke="#005A9E" stroke-width="2"/>
  
  <!-- Data visualization elements -->
  <!-- Bar chart bars -->
  <rect x="25" y="45" width="8" height="25" fill="#FFFFFF" opacity="0.9"/>
  <rect x="35" y="35" width="8" height="35" fill="#FFFFFF" opacity="0.9"/>
  <rect x="45" y="40" width="8" height="30" fill="#FFFFFF" opacity="0.9"/>
  <rect x="55" y="30" width="8" height="40" fill="#FFFFFF" opacity="0.9"/>
  <rect x="65" y="25" width="8" height="45" fill="#FFFFFF" opacity="0.9"/>
  <rect x="75" y="35" width="8" height="35" fill="#FFFFFF" opacity="0.9"/>
  <rect x="85" y="40" width="8" height="30" fill="#FFFFFF" opacity="0.9"/>
  <rect x="95" y="45" width="8" height="25" fill="#FFFFFF" opacity="0.9"/>
  
  <!-- Line chart line -->
  <path d="M20 80 Q30 70, 40 75 T60 65 T80 70 T100 60 T108 65" 
        stroke="#FFFFFF" stroke-width="3" fill="none" opacity="0.8"/>
  
  <!-- Data points -->
  <circle cx="30" cy="70" r="3" fill="#FFFFFF"/>
  <circle cx="50" cy="65" r="3" fill="#FFFFFF"/>
  <circle cx="70" cy="70" r="3" fill="#FFFFFF"/>
  <circle cx="90" cy="60" r="3" fill="#FFFFFF"/>
  
  <!-- Scientific symbols -->
  <!-- Microscope/analysis symbol -->
  <circle cx="64" cy="100" r="8" fill="#FFFFFF" opacity="0.7"/>
  <rect x="60" y="92" width="8" height="4" fill="#007ACC"/>
  <rect x="58" y="96" width="12" height="2" fill="#007ACC"/>
  
  <!-- File symbol -->
  <rect x="20" y="20" width="16" height="20" fill="#FFFFFF" opacity="0.6" rx="2"/>
  <rect x="22" y="22" width="12" height="2" fill="#007ACC"/>
  <rect x="22" y="26" width="8" height="2" fill="#007ACC"/>
  <rect x="22" y="30" width="10" height="2" fill="#007ACC"/>
</svg>

