<svg width="128" height="128" viewBox="0 0 128 128" xmlns="http://www.w3.org/2000/svg">
  <defs>
    <!-- Gradient definitions -->
    <linearGradient id="cyberGradient" x1="0%" y1="0%" x2="100%" y2="100%">
      <stop offset="0%" style="stop-color:#00FFFF;stop-opacity:1" />
      <stop offset="50%" style="stop-color:#0080FF;stop-opacity:1" />
      <stop offset="100%" style="stop-color:#8000FF;stop-opacity:1" />
    </linearGradient>
    
    <linearGradient id="dataGradient" x1="0%" y1="0%" x2="100%" y2="100%">
      <stop offset="0%" style="stop-color:#00FF80;stop-opacity:1" />
      <stop offset="100%" style="stop-color:#00FFFF;stop-opacity:1" />
    </linearGradient>
    
    <radialGradient id="bgGradient" cx="50%" cy="50%" r="50%">
      <stop offset="0%" style="stop-color:#0A0A0A;stop-opacity:1" />
      <stop offset="70%" style="stop-color:#1A1A2E;stop-opacity:1" />
      <stop offset="100%" style="stop-color:#16213E;stop-opacity:1" />
    </radialGradient>
    
    <!-- Glow gradients for manual glow effect -->
    <radialGradient id="glowGradient" cx="50%" cy="50%" r="50%">
      <stop offset="0%" style="stop-color:#00FFFF;stop-opacity:0.8" />
      <stop offset="30%" style="stop-color:#00FFFF;stop-opacity:0.4" />
      <stop offset="70%" style="stop-color:#00FFFF;stop-opacity:0.1" />
      <stop offset="100%" style="stop-color:#00FFFF;stop-opacity:0" />
    </radialGradient>
    
    <radialGradient id="dataGlowGradient" cx="50%" cy="50%" r="50%">
      <stop offset="0%" style="stop-color:#00FF80;stop-opacity:0.6" />
      <stop offset="40%" style="stop-color:#00FF80;stop-opacity:0.3" />
      <stop offset="80%" style="stop-color:#00FF80;stop-opacity:0.1" />
      <stop offset="100%" style="stop-color:#00FF80;stop-opacity:0" />
    </radialGradient>
  </defs>
  
  <!-- Background with gradient -->
  <rect width="128" height="128" fill="transparent" rx="16"/>
  
  <!-- Outer glow ring - multiple layers for glow effect -->
  <circle cx="64" cy="64" r="65" fill="url(#glowGradient)" opacity="0.3"/>
  <circle cx="64" cy="64" r="60" fill="none" stroke="url(#cyberGradient)" stroke-width="3" opacity="0.8"/>
  <circle cx="64" cy="64" r="58" fill="none" stroke="url(#cyberGradient)" stroke-width="1" opacity="1"/>
  
  <!-- Main data visualization - Holographic data streams -->
  <!-- Central data core with glow -->
  <circle cx="64" cy="64" r="18" fill="url(#dataGlowGradient)" opacity="0.4"/>
  <circle cx="64" cy="64" r="12" fill="none" stroke="url(#dataGradient)" stroke-width="2" opacity="0.9"/>
  <circle cx="64" cy="64" r="6" fill="url(#dataGradient)" opacity="0.6"/>
  
  <!-- Data streams radiating outward with glow layers -->
  <!-- Horizontal streams with glow -->
  <line x1="15" y1="64" x2="49" y2="64" stroke="url(#dataGradient)" stroke-width="4" opacity="0.3"/>
  <line x1="15" y1="64" x2="49" y2="64" stroke="url(#dataGradient)" stroke-width="2" opacity="0.7"/>
  <line x1="79" y1="64" x2="113" y2="64" stroke="url(#dataGradient)" stroke-width="4" opacity="0.3"/>
  <line x1="79" y1="64" x2="113" y2="64" stroke="url(#dataGradient)" stroke-width="2" opacity="0.7"/>
  
  <!-- Vertical streams with glow -->
  <line x1="64" y1="15" x2="64" y2="49" stroke="url(#dataGradient)" stroke-width="4" opacity="0.3"/>
  <line x1="64" y1="15" x2="64" y2="49" stroke="url(#dataGradient)" stroke-width="2" opacity="0.7"/>
  <line x1="64" y1="79" x2="64" y2="113" stroke="url(#dataGradient)" stroke-width="4" opacity="0.3"/>
  <line x1="64" y1="79" x2="64" y2="113" stroke="url(#dataGradient)" stroke-width="2" opacity="0.7"/>
  
  <!-- Diagonal streams with glow -->
  <line x1="15" y1="15" x2="49" y2="49" stroke="url(#dataGradient)" stroke-width="3" opacity="0.2"/>
  <line x1="15" y1="15" x2="49" y2="49" stroke="url(#dataGradient)" stroke-width="1.5" opacity="0.6"/>
  <line x1="113" y1="15" x2="79" y2="49" stroke="url(#dataGradient)" stroke-width="3" opacity="0.2"/>
  <line x1="113" y1="15" x2="79" y2="49" stroke="url(#dataGradient)" stroke-width="1.5" opacity="0.6"/>
  <line x1="15" y1="113" x2="49" y2="79" stroke="url(#dataGradient)" stroke-width="3" opacity="0.2"/>
  <line x1="15" y1="113" x2="49" y2="79" stroke="url(#dataGradient)" stroke-width="1.5" opacity="0.6"/>
  <line x1="113" y1="113" x2="79" y2="79" stroke="url(#dataGradient)" stroke-width="3" opacity="0.2"/>
  <line x1="113" y1="113" x2="79" y2="79" stroke="url(#dataGradient)" stroke-width="1.5" opacity="0.6"/>
  
  <!-- Data nodes along streams with glow -->
  <circle cx="36" cy="64" r="5" fill="url(#dataGlowGradient)" opacity="0.4"/>
  <circle cx="36" cy="64" r="3" fill="url(#dataGradient)"/>
  <circle cx="92" cy="64" r="5" fill="url(#dataGlowGradient)" opacity="0.4"/>
  <circle cx="92" cy="64" r="3" fill="url(#dataGradient)"/>
  <circle cx="64" cy="36" r="5" fill="url(#dataGlowGradient)" opacity="0.4"/>
  <circle cx="64" cy="36" r="3" fill="url(#dataGradient)"/>
  <circle cx="64" cy="92" r="5" fill="url(#dataGlowGradient)" opacity="0.4"/>
  <circle cx="64" cy="92" r="3" fill="url(#dataGradient)"/>
  
  <!-- Corner nodes with glow -->
  <circle cx="36" cy="36" r="4" fill="url(#dataGlowGradient)" opacity="0.3"/>
  <circle cx="36" cy="36" r="2" fill="url(#dataGradient)"/>
  <circle cx="92" cy="36" r="4" fill="url(#dataGlowGradient)" opacity="0.3"/>
  <circle cx="92" cy="36" r="2" fill="url(#dataGradient)"/>
  <circle cx="36" cy="92" r="4" fill="url(#dataGlowGradient)" opacity="0.3"/>
  <circle cx="36" cy="92" r="2" fill="url(#dataGradient)"/>
  <circle cx="92" cy="92" r="4" fill="url(#dataGlowGradient)" opacity="0.3"/>
  <circle cx="92" cy="92" r="2" fill="url(#dataGradient)"/>
  
  <!-- Floating data particles with glow -->
  <circle cx="28" cy="28" r="3" fill="url(#dataGlowGradient)" opacity="0.4"/>
  <circle cx="28" cy="28" r="1" fill="#00FFFF"/>
  <circle cx="100" cy="28" r="3" fill="url(#dataGlowGradient)" opacity="0.4"/>
  <circle cx="100" cy="28" r="1" fill="#00FFFF"/>
  <circle cx="28" cy="100" r="3" fill="url(#dataGlowGradient)" opacity="0.4"/>
  <circle cx="28" cy="100" r="1" fill="#00FFFF"/>
  <circle cx="100" cy="100" r="3" fill="url(#dataGlowGradient)" opacity="0.4"/>
  <circle cx="100" cy="100" r="1" fill="#00FFFF"/>
  
  <circle cx="16" cy="48" r="2" fill="url(#dataGlowGradient)" opacity="0.3"/>
  <circle cx="16" cy="48" r="1" fill="#8000FF"/>
  <circle cx="112" cy="48" r="2" fill="url(#dataGlowGradient)" opacity="0.3"/>
  <circle cx="112" cy="48" r="1" fill="#8000FF"/>
  <circle cx="16" cy="80" r="2" fill="url(#dataGlowGradient)" opacity="0.3"/>
  <circle cx="16" cy="80" r="1" fill="#8000FF"/>
  <circle cx="112" cy="80" r="2" fill="url(#dataGlowGradient)" opacity="0.3"/>
  <circle cx="112" cy="80" r="1" fill="#8000FF"/>
  
  <!-- Circuit-like patterns with glow -->
  <g stroke="url(#cyberGradient)" fill="none" opacity="0.6">
    <!-- Corner circuits with glow background -->
    <rect x="14" y="14" width="12" height="12" fill="url(#glowGradient)" opacity="0.2"/>
    <rect x="14" y="14" width="12" height="12" stroke-width="2"/>
    <rect x="102" y="14" width="12" height="12" fill="url(#glowGradient)" opacity="0.2"/>
    <rect x="102" y="14" width="12" height="12" stroke-width="2"/>
    <rect x="14" y="102" width="12" height="12" fill="url(#glowGradient)" opacity="0.2"/>
    <rect x="14" y="102" width="12" height="12" stroke-width="2"/>
    <rect x="102" y="102" width="12" height="12" fill="url(#glowGradient)" opacity="0.2"/>
    <rect x="102" y="102" width="12" height="12" stroke-width="2"/>
    
    <!-- Inner circuit patterns with glow -->
    <rect x="46" y="46" width="10" height="10" fill="url(#glowGradient)" opacity="0.1"/>
    <rect x="46" y="46" width="10" height="10" stroke-width="1"/>
    <rect x="72" y="46" width="10" height="10" fill="url(#glowGradient)" opacity="0.1"/>
    <rect x="72" y="46" width="10" height="10" stroke-width="1"/>
    <rect x="46" y="72" width="10" height="10" fill="url(#glowGradient)" opacity="0.1"/>
    <rect x="46" y="72" width="10" height="10" stroke-width="1"/>
    <rect x="72" y="72" width="10" height="10" fill="url(#glowGradient)" opacity="0.1"/>
    <rect x="72" y="72" width="10" height="10" stroke-width="1"/>
  </g>
  
  <!-- Scientific data visualization elements with glow -->
  <!-- Bar chart representation -->
  <rect x="18" y="18" width="6" height="12" fill="url(#dataGlowGradient)" opacity="0.3"/>
  <rect x="18" y="18" width="6" height="12" fill="url(#dataGradient)" opacity="0.8"/>
  <rect x="26" y="16" width="6" height="14" fill="url(#dataGlowGradient)" opacity="0.3"/>
  <rect x="26" y="16" width="6" height="14" fill="url(#dataGradient)" opacity="0.8"/>
  <rect x="34" y="20" width="6" height="10" fill="url(#dataGlowGradient)" opacity="0.3"/>
  <rect x="34" y="20" width="6" height="10" fill="url(#dataGradient)" opacity="0.8"/>
  
  <rect x="88" y="18" width="6" height="12" fill="url(#dataGlowGradient)" opacity="0.3"/>
  <rect x="88" y="18" width="6" height="12" fill="url(#dataGradient)" opacity="0.8"/>
  <rect x="96" y="16" width="6" height="14" fill="url(#dataGlowGradient)" opacity="0.3"/>
  <rect x="96" y="16" width="6" height="14" fill="url(#dataGradient)" opacity="0.8"/>
  <rect x="104" y="20" width="6" height="10" fill="url(#dataGlowGradient)" opacity="0.3"/>
  <rect x="104" y="20" width="6" height="10" fill="url(#dataGradient)" opacity="0.8"/>
  
  <!-- Central data processing core with static glow -->
  <circle cx="64" cy="64" r="10" fill="url(#dataGlowGradient)" opacity="0.2"/>
  <circle cx="64" cy="64" r="8" fill="none" stroke="url(#cyberGradient)" stroke-width="1" opacity="0.7"/>
  
  <!-- Corner accent elements with glow -->
  <g fill="url(#cyberGradient)" opacity="0.8">
    <polygon points="16,16 20,16 16,20" fill="url(#glowGradient)" opacity="0.3"/>
    <polygon points="16,16 20,16 16,20"/>
    <polygon points="112,16 108,16 112,20" fill="url(#glowGradient)" opacity="0.3"/>
    <polygon points="112,16 108,16 112,20"/>
    <polygon points="16,112 20,112 16,108" fill="url(#glowGradient)" opacity="0.3"/>
    <polygon points="16,112 20,112 16,108"/>
    <polygon points="112,112 108,112 112,108" fill="url(#glowGradient)" opacity="0.3"/>
    <polygon points="112,112 108,112 112,108"/>
  </g>
</svg>